<svg xmlns="http://www.w3.org/2000/svg" xmlns:xlink="http://www.w3.org/1999/xlink" width="0" height="0" style="display:none;"><symbol viewBox="0 0 24 24" id="wifi-off-line"><path d="M12.0001 18.0002C12.7144 18.0002 13.3704 18.2498 13.8856 18.6666L12.0001 21.0002L10.1145 18.6666C10.6297 18.2498 11.2857 18.0002 12.0001 18.0002ZM2.80766 1.39355L20.4853 19.0712L19.0711 20.4854L13.8913 15.3043C13.2967 15.107 12.6609 15.0002 12.0001 15.0002C10.5719 15.0002 9.26024 15.4991 8.22998 16.3323L6.97363 14.7761C8.24961 13.7443 9.84925 13.097 11.5964 13.0102L9.00025 10.4142C7.55273 10.8235 6.22651 11.5218 5.0878 12.4428L3.83099 10.8869C4.89946 10.0228 6.10763 9.3245 7.41633 8.8313L5.13168 6.54522C3.98878 7.08925 2.92058 7.76484 1.94666 8.5524L0.689453 6.99686C1.60358 6.25759 2.59156 5.60601 3.64058 5.05491L1.39345 2.80777L2.80766 1.39355ZM14.5004 10.2856L12.2165 8.00255L12 8.00012C15.0947 8.00012 17.9369 9.08154 20.1693 10.887L18.9123 12.4428C17.6438 11.4169 16.1427 10.6673 14.5004 10.2856ZM12.0001 3.00016C16.2849 3.00016 20.22 4.49731 23.3109 6.99703L22.0534 8.5524C19.3061 6.33074 15.8085 5.00016 12.0001 5.00016C11.122 5.00016 10.2604 5.07089 9.42075 5.20697L7.72455 3.511C9.09498 3.17714 10.5268 3.00016 12.0001 3.00016Z"></path></symbol><symbol viewBox="0 0 24 24" id="bar-chart-horizontal-fill"><path d="M12 3V7H3V3H12ZM16 17V21H3V17H16ZM22 10V14H3V10H22Z"></path></symbol><symbol viewBox="0 0 24 24" id="dashboard-line"><path d="M13 21V11H21V21H13ZM3 13V3H11V13H3ZM9 11V5H5V11H9ZM3 21V15H11V21H3ZM5 19H9V17H5V19ZM15 19H19V13H15V19ZM13 3H21V9H13V3ZM15 5V7H19V5H15Z"></path></symbol><symbol viewBox="0 0 24 24" id="node-tree"><path d="M10 2C10.5523 2 11 2.44772 11 3V7C11 7.55228 10.5523 8 10 8H8V10H13V9C13 8.44772 13.4477 8 14 8H20C20.5523 8 21 8.44772 21 9V13C21 13.5523 20.5523 14 20 14H14C13.4477 14 13 13.5523 13 13V12H8V18H13V17C13 16.4477 13.4477 16 14 16H20C20.5523 16 21 16.4477 21 17V21C21 21.5523 20.5523 22 20 22H14C13.4477 22 13 21.5523 13 21V20H7C6.44772 20 6 19.5523 6 19V8H4C3.44772 8 3 7.55228 3 7V3C3 2.44772 3.44772 2 4 2H10ZM19 18H15V20H19V18ZM19 10H15V12H19V10ZM9 4H5V6H9V4Z"></path></symbol><symbol viewBox="0 0 24 24" id="user-line"><path d="M4 22C4 17.5817 7.58172 14 12 14C16.4183 14 20 17.5817 20 22H18C18 18.6863 15.3137 16 12 16C8.68629 16 6 18.6863 6 22H4ZM12 13C8.685 13 6 10.315 6 7C6 3.685 8.685 1 12 1C15.315 1 18 3.685 18 7C18 10.315 15.315 13 12 13ZM12 11C14.21 11 16 9.21 16 7C16 4.79 14.21 3 12 3C9.79 3 8 4.79 8 7C8 9.21 9.79 11 12 11Z"></path></symbol><symbol viewBox="0 0 24 24" id="group-line"><path d="M2 22C2 17.5817 5.58172 14 10 14C14.4183 14 18 17.5817 18 22H16C16 18.6863 13.3137 16 10 16C6.68629 16 4 18.6863 4 22H2ZM10 13C6.685 13 4 10.315 4 7C4 3.685 6.685 1 10 1C13.315 1 16 3.685 16 7C16 10.315 13.315 13 10 13ZM10 11C12.21 11 14 9.21 14 7C14 4.79 12.21 3 10 3C7.79 3 6 4.79 6 7C6 9.21 7.79 11 10 11ZM18.2837 14.7028C21.0644 15.9561 23 18.752 23 22H21C21 19.564 19.5483 17.4671 17.4628 16.5271L18.2837 14.7028ZM17.5962 3.41321C19.5944 4.23703 21 6.20361 21 8.5C21 11.3702 18.8042 13.7252 16 13.9776V11.9646C17.6967 11.7222 19 10.264 19 8.5C19 7.11935 18.2016 5.92603 17.041 5.35635L17.5962 3.41321Z"></path></symbol><symbol viewBox="0 0 24 24" id="shield-check-line"><path d="M12 1L20.2169 2.82598C20.6745 2.92766 21 3.33347 21 3.80217V13.7889C21 15.795 19.9974 17.6684 18.3282 18.7812L12 23L5.6718 18.7812C4.00261 17.6684 3 15.795 3 13.7889V3.80217C3 3.33347 3.32553 2.92766 3.78307 2.82598L12 1ZM12 3.04879L5 4.60434V13.7889C5 15.1263 5.6684 16.3752 6.7812 17.1171L12 20.5963L17.2188 17.1171C18.3316 16.3752 19 15.1263 19 13.7889V4.60434L12 3.04879ZM16.4524 8.22183L17.8666 9.63604L11.5026 16L7.25999 11.7574L8.67421 10.3431L11.5019 13.1709L16.4524 8.22183Z"></path></symbol><symbol viewBox="0 0 24 24" id="shield-star-line"><path d="M5 4.60434V13.7889C5 15.1263 5.6684 16.3752 6.7812 17.1171L12 20.5963L17.2188 17.1171C18.3316 16.3752 19 15.1263 19 13.7889V4.60434L12 3.04879L5 4.60434ZM3.78307 2.82598L12 1L20.2169 2.82598C20.6745 2.92766 21 3.33347 21 3.80217V13.7889C21 15.795 19.9974 17.6684 18.3282 18.7812L12 23L5.6718 18.7812C4.00261 17.6684 3 15.795 3 13.7889V3.80217C3 3.33347 3.32553 2.92766 3.78307 2.82598ZM12 13.5L9.06107 15.0451L9.62236 11.7725L7.24472 9.45492L10.5305 8.97746L12 6L13.4695 8.97746L16.7553 9.45492L14.3776 11.7725L14.9389 15.0451L12 13.5Z"></path></symbol><symbol viewBox="0 0 24 24" id="folder-history-line"><path d="M10.4142 3L12.4142 5H21C21.5523 5 22 5.44772 22 6V20C22 20.5523 21.5523 21 21 21H3C2.44772 21 2 20.5523 2 20V4C2 3.44772 2.44772 3 3 3H10.4142ZM9.58579 5H4V19H20V7H11.5858L9.58579 5ZM13 9V13H16V15H11V9H13Z"></path></symbol><symbol viewBox="0 0 24 24" id="settings-3-line"><path d="M3.33946 17.0002C2.90721 16.2515 2.58277 15.4702 2.36133 14.6741C3.3338 14.1779 3.99972 13.1668 3.99972 12.0002C3.99972 10.8345 3.3348 9.824 2.36353 9.32741C2.81025 7.71651 3.65857 6.21627 4.86474 4.99001C5.7807 5.58416 6.98935 5.65534 7.99972 5.072C9.01009 4.48866 9.55277 3.40635 9.4962 2.31604C11.1613 1.8846 12.8847 1.90004 14.5031 2.31862C14.4475 3.40806 14.9901 4.48912 15.9997 5.072C17.0101 5.65532 18.2187 5.58416 19.1346 4.99007C19.7133 5.57986 20.2277 6.25151 20.66 7.00021C21.0922 7.7489 21.4167 8.53025 21.6381 9.32628C20.6656 9.82247 19.9997 10.8336 19.9997 12.0002C19.9997 13.166 20.6646 14.1764 21.6359 14.673C21.1892 16.2839 20.3409 17.7841 19.1347 19.0104C18.2187 18.4163 17.0101 18.3451 15.9997 18.9284C14.9893 19.5117 14.4467 20.5941 14.5032 21.6844C12.8382 22.1158 11.1148 22.1004 9.49633 21.6818C9.55191 20.5923 9.00929 19.5113 7.99972 18.9284C6.98938 18.3451 5.78079 18.4162 4.86484 19.0103C4.28617 18.4205 3.77172 17.7489 3.33946 17.0002ZM8.99972 17.1964C10.0911 17.8265 10.8749 18.8227 11.2503 19.9659C11.7486 20.0133 12.2502 20.014 12.7486 19.9675C13.1238 18.8237 13.9078 17.8268 14.9997 17.1964C16.0916 16.5659 17.347 16.3855 18.5252 16.6324C18.8146 16.224 19.0648 15.7892 19.2729 15.334C18.4706 14.4373 17.9997 13.2604 17.9997 12.0002C17.9997 10.74 18.4706 9.5632 19.2729 8.6665C19.1688 8.4405 19.0538 8.21822 18.9279 8.00021C18.802 7.78219 18.667 7.57148 18.5233 7.36842C17.3457 7.61476 16.0911 7.43414 14.9997 6.80405C13.9083 6.17395 13.1246 5.17768 12.7491 4.03455C12.2509 3.98714 11.7492 3.98646 11.2509 4.03292C10.8756 5.17671 10.0916 6.17364 8.99972 6.80405C7.9078 7.43447 6.65245 7.61494 5.47428 7.36803C5.18485 7.77641 4.93463 8.21117 4.72656 8.66637C5.52881 9.56311 5.99972 10.74 5.99972 12.0002C5.99972 13.2604 5.52883 14.4372 4.72656 15.3339C4.83067 15.5599 4.94564 15.7822 5.07152 16.0002C5.19739 16.2182 5.3324 16.4289 5.47612 16.632C6.65377 16.3857 7.90838 16.5663 8.99972 17.1964ZM11.9997 15.0002C10.3429 15.0002 8.99972 13.6571 8.99972 12.0002C8.99972 10.3434 10.3429 9.00021 11.9997 9.00021C13.6566 9.00021 14.9997 10.3434 14.9997 12.0002C14.9997 13.6571 13.6566 15.0002 11.9997 15.0002ZM11.9997 13.0002C12.552 13.0002 12.9997 12.5525 12.9997 12.0002C12.9997 11.4479 12.552 11.0002 11.9997 11.0002C11.4474 11.0002 10.9997 11.4479 10.9997 12.0002C10.9997 12.5525 11.4474 13.0002 11.9997 13.0002Z"></path></symbol><symbol viewBox="0 0 24 24" id="shut-down-line"><path d="M6.26489 3.80698L7.41191 5.44558C5.34875 6.89247 4 9.28873 4 12C4 16.4183 7.58172 20 12 20C16.4183 20 20 16.4183 20 12C20 9.28873 18.6512 6.89247 16.5881 5.44558L17.7351 3.80698C20.3141 5.61559 22 8.61091 22 12C22 17.5228 17.5228 22 12 22C6.47715 22 2 17.5228 2 12C2 8.61091 3.68594 5.61559 6.26489 3.80698ZM11 12V2H13V12H11Z"></path></symbol><symbol viewBox="0 0 24 24" id="wifi-line"><path d="M0.689453 6.99659C3.78027 4.49704 7.71526 3 11.9999 3C16.2845 3 20.2195 4.49704 23.3104 6.99659L22.0536 8.55252C19.3062 6.3307 15.8085 5 11.9999 5C8.19133 5 4.69356 6.3307 1.94617 8.55252L0.689453 6.99659ZM3.83124 10.8864C6.0635 9.08119 8.90544 8 11.9999 8C15.0944 8 17.9363 9.08119 20.1686 10.8864L18.9118 12.4424C17.023 10.9149 14.6183 10 11.9999 10C9.38151 10 6.97679 10.9149 5.08796 12.4424L3.83124 10.8864ZM6.97304 14.7763C8.34673 13.6653 10.0956 13 11.9999 13C13.9042 13 15.6531 13.6653 17.0268 14.7763L15.7701 16.3322C14.7398 15.499 13.4281 15 11.9999 15C10.5717 15 9.26002 15.499 8.22975 16.3322L6.97304 14.7763ZM10.1148 18.6661C10.63 18.2495 11.2858 18 11.9999 18C12.714 18 13.3698 18.2495 13.885 18.6661L11.9999 21L10.1148 18.6661Z"></path></symbol><symbol viewBox="0 0 24 24" id="cast-line"><path d="M3 3H21C21.5523 3 22 3.44772 22 4V20C22 20.5523 21.5523 21 21 21H15C15 20.3199 14.9478 19.6519 14.8471 19H20V5H4V8.1529C3.34806 8.05223 2.68013 8 2 8V4C2 3.44772 2.44772 3 3 3ZM13 21H11C11 16.0294 6.97056 12 2 12V10C8.07513 10 13 14.9249 13 21ZM9 21H7C7 18.2386 4.76142 16 2 16V14C5.86599 14 9 17.134 9 21ZM5 21H2V18C3.65685 18 5 19.3431 5 21Z"></path></symbol><symbol viewBox="0 0 24 24" id="fire-line"><path d="M12 23C16.1421 23 19.5 19.6421 19.5 15.5C19.5 14.6345 19.2697 13.8032 19 13.0296C17.3333 14.6765 16.0667 15.5 15.2 15.5C19.1954 8.5 17 5.5 11 1.5C11.5 6.49951 8.20403 8.77375 6.86179 10.0366C5.40786 11.4045 4.5 13.3462 4.5 15.5C4.5 19.6421 7.85786 23 12 23ZM12.7094 5.23498C15.9511 7.98528 15.9666 10.1223 13.463 14.5086C12.702 15.8419 13.6648 17.5 15.2 17.5C15.8884 17.5 16.5841 17.2992 17.3189 16.9051C16.6979 19.262 14.5519 21 12 21C8.96243 21 6.5 18.5376 6.5 15.5C6.5 13.9608 7.13279 12.5276 8.23225 11.4932C8.35826 11.3747 8.99749 10.8081 9.02477 10.7836C9.44862 10.4021 9.7978 10.0663 10.1429 9.69677C11.3733 8.37932 12.2571 6.91631 12.7094 5.23498Z"></path></symbol><symbol viewBox="0 0 24 24" id="fire-fill"><path d="M12 23C7.85786 23 4.5 19.6421 4.5 15.5C4.5 13.3462 5.40786 11.4045 6.86179 10.0366C8.20403 8.77375 11.5 6.49951 11 1.5C17 5.5 20 9.5 14 15.5C15 15.5 16.5 15.5 19 13.0296C19.2697 13.8032 19.5 14.6345 19.5 15.5C19.5 19.6421 16.1421 23 12 23Z"></path></symbol><symbol viewBox="0 0 24 24" id="chat-upload-line"><path d="M6.45455 19L2 22.5V4C2 3.44772 2.44772 3 3 3H21C21.5523 3 22 3.44772 22 4V18C22 18.5523 21.5523 19 21 19H6.45455ZM4 18.3851L5.76282 17H20V5H4V18.3851ZM13 11V15H11V11H8L12 7L16 11H13Z"></path></symbol><symbol viewBox="0 0 24 24" id="chat-download-line"><path d="M6.45455 19L2 22.5V4C2 3.44772 2.44772 3 3 3H21C21.5523 3 22 3.44772 22 4V18C22 18.5523 21.5523 19 21 19H6.45455ZM4 18.3851L5.76282 17H20V5H4V18.3851ZM13 11H16L12 15L8 11H11V7H13V11Z"></path></symbol><symbol viewBox="0 0 24 24" id="group-2-line"><path d="M9.55 11.5C8.30736 11.5 7.3 10.4926 7.3 9.25C7.3 8.00736 8.30736 7 9.55 7C10.7926 7 11.8 8.00736 11.8 9.25C11.8 10.4926 10.7926 11.5 9.55 11.5ZM10 19.748V16.4C10 15.9116 10.1442 15.4627 10.4041 15.0624C10.1087 15.0213 9.80681 15 9.5 15C7.93201 15 6.49369 15.5552 5.37091 16.4797C6.44909 18.0721 8.08593 19.2553 10 19.748ZM4.45286 14.66C5.86432 13.6168 7.61013 13 9.5 13C10.5435 13 11.5431 13.188 12.4667 13.5321C13.3447 13.1888 14.3924 13 15.5 13C17.1597 13 18.6849 13.4239 19.706 14.1563C19.8976 13.4703 20 12.7471 20 12C20 7.58172 16.4183 4 12 4C7.58172 4 4 7.58172 4 12C4 12.9325 4.15956 13.8278 4.45286 14.66ZM18.8794 16.0859C18.4862 15.5526 17.1708 15 15.5 15C13.4939 15 12 15.7967 12 16.4V20C14.9255 20 17.4843 18.4296 18.8794 16.0859ZM12 22C6.47715 22 2 17.5228 2 12C2 6.47715 6.47715 2 12 2C17.5228 2 22 6.47715 22 12C22 17.5228 17.5228 22 12 22ZM15.5 12.5C14.3954 12.5 13.5 11.6046 13.5 10.5C13.5 9.39543 14.3954 8.5 15.5 8.5C16.6046 8.5 17.5 9.39543 17.5 10.5C17.5 11.6046 16.6046 12.5 15.5 12.5Z"></path></symbol><symbol viewBox="0 0 24 24" id="group-2-fill"><path d="M10 19.748V16.4C10 15.1174 10.9948 14.1076 12.4667 13.5321C11.5431 13.188 10.5435 13 9.5 13C7.61013 13 5.86432 13.6168 4.45286 14.66C5.33199 17.1544 7.41273 19.082 10 19.748ZM18.8794 16.0859C18.4862 15.5526 17.1708 15 15.5 15C13.4939 15 12 15.7967 12 16.4V20C14.9255 20 17.4843 18.4296 18.8794 16.0859ZM9.55 11.5C10.7926 11.5 11.8 10.4926 11.8 9.25C11.8 8.00736 10.7926 7 9.55 7C8.30736 7 7.3 8.00736 7.3 9.25C7.3 10.4926 8.30736 11.5 9.55 11.5ZM15.5 12.5C16.6046 12.5 17.5 11.6046 17.5 10.5C17.5 9.39543 16.6046 8.5 15.5 8.5C14.3954 8.5 13.5 9.39543 13.5 10.5C13.5 11.6046 14.3954 12.5 15.5 12.5ZM12 22C6.47715 22 2 17.5228 2 12C2 6.47715 6.47715 2 12 2C17.5228 2 22 6.47715 22 12C22 17.5228 17.5228 22 12 22Z"></path></symbol><symbol viewBox="0 0 24 24" id="database-2-fill"><path d="M21 9.5V12.5C21 14.9853 16.9706 17 12 17C7.02944 17 3 14.9853 3 12.5V9.5C3 11.9853 7.02944 14 12 14C16.9706 14 21 11.9853 21 9.5ZM3 14.5C3 16.9853 7.02944 19 12 19C16.9706 19 21 16.9853 21 14.5V17.5C21 19.9853 16.9706 22 12 22C7.02944 22 3 19.9853 3 17.5V14.5ZM12 12C7.02944 12 3 9.98528 3 7.5C3 5.01472 7.02944 3 12 3C16.9706 3 21 5.01472 21 7.5C21 9.98528 16.9706 12 12 12Z"></path></symbol><symbol viewBox="0 0 24 24" id="question-answer-fill"><path d="M8 18H18.2372L20 19.3851V9H21C21.5523 9 22 9.44772 22 10V23.5L17.5455 20H9C8.44772 20 8 19.5523 8 19V18ZM5.45455 16L1 19.5V4C1 3.44772 1.44772 3 2 3H17C17.5523 3 18 3.44772 18 4V16H5.45455Z"></path></symbol><symbol viewBox="0 0 24 24" id="line-chart-fill"><path d="M5 3V19H21V21H3V3H5ZM19.9393 5.93934L22.0607 8.06066L16 14.1213L13 11.121L9.06066 15.0607L6.93934 12.9393L13 6.87868L16 9.879L19.9393 5.93934Z"></path></symbol><symbol viewBox="0 0 24 24" id="chat-history-line"><path d="M12 2C17.5228 2 22 6.47715 22 12C22 17.5228 17.5228 22 12 22C10.298 22 8.69525 21.5748 7.29229 20.8248L2 22L3.17629 16.7097C2.42562 15.3063 2 13.7028 2 12C2 6.47715 6.47715 2 12 2ZM12 4C7.58172 4 4 7.58172 4 12C4 13.3347 4.32563 14.6181 4.93987 15.7664L5.28952 16.4201L4.63445 19.3663L7.58189 18.7118L8.23518 19.061C9.38315 19.6747 10.6659 20 12 20C16.4183 20 20 16.4183 20 12C20 7.58172 16.4183 4 12 4ZM13 7V12H17V14H11V7H13Z"></path></symbol><symbol viewBox="0 0 24 24" id="user-voice-line"><path d="M1 22.0001C1 17.5819 4.58172 14.0001 9 14.0001C13.4183 14.0001 17 17.5819 17 22.0001H15C15 18.6864 12.3137 16.0001 9 16.0001C5.68629 16.0001 3 18.6864 3 22.0001H1ZM9 13.0001C5.685 13.0001 3 10.3151 3 7.00014C3 3.68514 5.685 1.00014 9 1.00014C12.315 1.00014 15 3.68514 15 7.00014C15 10.3151 12.315 13.0001 9 13.0001ZM9 11.0001C11.21 11.0001 13 9.21014 13 7.00014C13 4.79014 11.21 3.00014 9 3.00014C6.79 3.00014 5 4.79014 5 7.00014C5 9.21014 6.79 11.0001 9 11.0001ZM21.5476 0.783691C22.4773 2.65664 23 4.76735 23 7.00014C23 9.23293 22.4773 11.3436 21.5476 13.2166L19.9027 12.0203C20.6071 10.493 21 8.79243 21 7.00014C21 5.20785 20.6071 3.50733 19.9027 1.98002L21.5476 0.783691ZM18.2463 3.18464C18.732 4.36038 19 5.64897 19 7.00014C19 8.35131 18.732 9.6399 18.2463 10.8156L16.5694 9.59607C16.8485 8.78206 17 7.90879 17 7.00014C17 6.09149 16.8485 5.21821 16.5694 4.4042L18.2463 3.18464Z"></path></symbol><symbol viewBox="0 0 24 24" id="add-box-line"><path d="M4 3H20C20.5523 3 21 3.44772 21 4V20C21 20.5523 20.5523 21 20 21H4C3.44772 21 3 20.5523 3 20V4C3 3.44772 3.44772 3 4 3ZM5 5V19H19V5H5ZM11 11V7H13V11H17V13H13V17H11V13H7V11H11Z"></path></symbol><symbol viewBox="0 0 24 24" id="checkbox-indeterminate-line"><path d="M4 3H20C20.5523 3 21 3.44772 21 4V20C21 20.5523 20.5523 21 20 21H4C3.44772 21 3 20.5523 3 20V4C3 3.44772 3.44772 3 4 3ZM5 5V19H19V5H5ZM7 11H17V13H7V11Z"></path></symbol><symbol viewBox="0 0 24 24" id="user-add-line"><path d="M14 14.252V16.3414C13.3744 16.1203 12.7013 16 12 16C8.68629 16 6 18.6863 6 22H4C4 17.5817 7.58172 14 12 14C12.6906 14 13.3608 14.0875 14 14.252ZM12 13C8.685 13 6 10.315 6 7C6 3.685 8.685 1 12 1C15.315 1 18 3.685 18 7C18 10.315 15.315 13 12 13ZM12 11C14.21 11 16 9.21 16 7C16 4.79 14.21 3 12 3C9.79 3 8 4.79 8 7C8 9.21 9.79 11 12 11ZM18 17V14H20V17H23V19H20V22H18V19H15V17H18Z"></path></symbol><symbol viewBox="0 0 24 24" id="delete-bin-7-line"><path d="M17 6H22V8H20V21C20 21.5523 19.5523 22 19 22H5C4.44772 22 4 21.5523 4 21V8H2V6H7V3C7 2.44772 7.44772 2 8 2H16C16.5523 2 17 2.44772 17 3V6ZM18 8H6V20H18V8ZM9 4V6H15V4H9Z"></path></symbol><symbol viewBox="0 0 24 24" id="file-list-fill"><path d="M20 22H4C3.44772 22 3 21.5523 3 21V3C3 2.44772 3.44772 2 4 2H20C20.5523 2 21 2.44772 21 3V21C21 21.5523 20.5523 22 20 22ZM8 7V9H16V7H8ZM8 11V13H16V11H8ZM8 15V17H16V15H8Z"></path></symbol><symbol viewBox="0 0 24 24" id="copyright-line"><path d="M16.2877 9.42773C15.413 7.97351 13.8195 7 12 7 9.23999 7 7 9.23999 7 12 7 14.76 9.23999 17 12 17 13.8195 17 15.413 16.0265 16.2877 14.5723L14.5729 13.5442C14.0483 14.4166 13.0927 15 12 15 10.3425 15 9 13.6575 9 12 9 10.3425 10.3425 9 12 9 13.093 9 14.0491 9.58386 14.5735 10.4568L16.2877 9.42773ZM22 12C22 6.47998 17.52 2 12 2 6.47998 2 2 6.47998 2 12 2 17.52 6.47998 22 12 22 17.52 22 22 17.52 22 12ZM4 12C4 7.57996 7.57996 4 12 4 16.42 4 20 7.57996 20 12 20 16.42 16.42 20 12 20 7.57996 20 4 16.42 4 12Z"></path></symbol><symbol viewBox="0 0 24 24" id="file-damage-line"><path d="M19 9H14V4H5V11.8571L6.5 13.25L10 9.5L13 14.5L15 12L18 15L15 14.5L13 17L10 13L7 16.5L5 15.25V20H19V9ZM21 8V20.9932C21 21.5501 20.5552 22 20.0066 22H3.9934C3.44495 22 3 21.556 3 21.0082V2.9918C3 2.45531 3.4487 2 4.00221 2H14.9968L21 8Z"></path></symbol><symbol viewBox="0 0 24 24" id="home-4-line"><path d="M19 21.0001H5C4.44772 21.0001 4 20.5524 4 20.0001V11.0001L1 11.0001L11.3273 1.61162C11.7087 1.26488 12.2913 1.26488 12.6727 1.61162L23 11.0001L20 11.0001V20.0001C20 20.5524 19.5523 21.0001 19 21.0001ZM13 19.0001H18V9.15757L12 3.70302L6 9.15757V19.0001H11V13.0001H13V19.0001Z"></path></symbol><symbol viewBox="0 0 24 24" id="question-mark"><path d="M12 19C12.8284 19 13.5 19.6716 13.5 20.5C13.5 21.3284 12.8284 22 12 22C11.1716 22 10.5 21.3284 10.5 20.5C10.5 19.6716 11.1716 19 12 19ZM12 2C15.3137 2 18 4.68629 18 8C18 10.1646 17.2474 11.2907 15.3259 12.9231C13.3986 14.5604 13 15.2969 13 17H11C11 14.526 11.787 13.3052 14.031 11.3989C15.5479 10.1102 16 9.43374 16 8C16 5.79086 14.2091 4 12 4C9.79086 4 8 5.79086 8 8V9H6V8C6 4.68629 8.68629 2 12 2Z"></path></symbol><symbol viewBox="0 0 24 24" id="close-circle-line"><path d="M12 22C6.47715 22 2 17.5228 2 12C2 6.47715 6.47715 2 12 2C17.5228 2 22 6.47715 22 12C22 17.5228 17.5228 22 12 22ZM12 20C16.4183 20 20 16.4183 20 12C20 7.58172 16.4183 4 12 4C7.58172 4 4 7.58172 4 12C4 16.4183 7.58172 20 12 20ZM12 10.5858L14.8284 7.75736L16.2426 9.17157L13.4142 12L16.2426 14.8284L14.8284 16.2426L12 13.4142L9.17157 16.2426L7.75736 14.8284L10.5858 12L7.75736 9.17157L9.17157 7.75736L12 10.5858Z"></path></symbol><symbol viewBox="0 0 24 24" id="login-circle-line"><path d="M10 11V8L15 12L10 16V13H1V11H10ZM2.4578 15H4.58152C5.76829 17.9318 8.64262 20 12 20C16.4183 20 20 16.4183 20 12C20 7.58172 16.4183 4 12 4C8.64262 4 5.76829 6.06817 4.58152 9H2.4578C3.73207 4.94289 7.52236 2 12 2C17.5228 2 22 6.47715 22 12C22 17.5228 17.5228 22 12 22C7.52236 22 3.73207 19.0571 2.4578 15Z"></path></symbol><symbol viewBox="0 0 24 24" id="cpu-line"><path d="M6 18H18V6H6V18ZM14 20H10V22H8V20H5C4.44772 20 4 19.5523 4 19V16H2V14H4V10H2V8H4V5C4 4.44772 4.44772 4 5 4H8V2H10V4H14V2H16V4H19C19.5523 4 20 4.44772 20 5V8H22V10H20V14H22V16H20V19C20 19.5523 19.5523 20 19 20H16V22H14V20ZM8 8H16V16H8V8Z"></path></symbol><symbol viewBox="0 0 24 24" id="database-2-line"><path d="M5 12.5C5 12.8134 5.46101 13.3584 6.53047 13.8931C7.91405 14.5849 9.87677 15 12 15C14.1232 15 16.0859 14.5849 17.4695 13.8931C18.539 13.3584 19 12.8134 19 12.5V10.3287C17.35 11.3482 14.8273 12 12 12C9.17273 12 6.64996 11.3482 5 10.3287V12.5ZM19 15.3287C17.35 16.3482 14.8273 17 12 17C9.17273 17 6.64996 16.3482 5 15.3287V17.5C5 17.8134 5.46101 18.3584 6.53047 18.8931C7.91405 19.5849 9.87677 20 12 20C14.1232 20 16.0859 19.5849 17.4695 18.8931C18.539 18.3584 19 17.8134 19 17.5V15.3287ZM3 17.5V7.5C3 5.01472 7.02944 3 12 3C16.9706 3 21 5.01472 21 7.5V17.5C21 19.9853 16.9706 22 12 22C7.02944 22 3 19.9853 3 17.5ZM12 10C14.1232 10 16.0859 9.58492 17.4695 8.89313C18.539 8.3584 19 7.81342 19 7.5C19 7.18658 18.539 6.6416 17.4695 6.10687C16.0859 5.41508 14.1232 5 12 5C9.87677 5 7.91405 5.41508 6.53047 6.10687C5.46101 6.6416 5 7.18658 5 7.5C5 7.81342 5.46101 8.3584 6.53047 8.89313C7.91405 9.58492 9.87677 10 12 10Z"></path></symbol><symbol viewBox="0 0 24 24" id="hard-drive-2-line"><path d="M5 14H19V4H5V14ZM5 16V20H19V16H5ZM4 2H20C20.5523 2 21 2.44772 21 3V21C21 21.5523 20.5523 22 20 22H4C3.44772 22 3 21.5523 3 21V3C3 2.44772 3.44772 2 4 2ZM15 17H17V19H15V17Z"></path></symbol><symbol viewBox="0 0 24 24" id="external-link-fill"><path d="M10 6V8H5V19H16V14H18V20C18 20.5523 17.5523 21 17 21H4C3.44772 21 3 20.5523 3 20V7C3 6.44772 3.44772 6 4 6H10ZM21 3V12L17.206 8.207L11.2071 14.2071L9.79289 12.7929L15.792 6.793L12 3H21Z"></path></symbol><symbol viewBox="0 0 24 24" id="corner-down-right-line"><path d="M5.00014 13.9999L5 5.00003L7 5L7.00011 11.9999L17.1719 12L13.2222 8.05027L14.6364 6.63606L21.0004 13L14.6364 19.364L13.2222 17.9498L17.172 14L5.00014 13.9999Z"></path></symbol><symbol viewBox="0 0 24 24" id="flashlight-line"><path d="M13 9H21L11 24V15H4L13 0V9ZM11 11V7.22063L7.53238 13H13V17.3944L17.263 11H11Z"></path></symbol><symbol viewBox="0 0 24 24" id="question-line"><path d="M12 22C6.47715 22 2 17.5228 2 12C2 6.47715 6.47715 2 12 2C17.5228 2 22 6.47715 22 12C22 17.5228 17.5228 22 12 22ZM12 20C16.4183 20 20 16.4183 20 12C20 7.58172 16.4183 4 12 4C7.58172 4 4 7.58172 4 12C4 16.4183 7.58172 20 12 20ZM11 15H13V17H11V15ZM13 13.3551V14H11V12.5C11 11.9477 11.4477 11.5 12 11.5C12.8284 11.5 13.5 10.8284 13.5 10C13.5 9.17157 12.8284 8.5 12 8.5C11.2723 8.5 10.6656 9.01823 10.5288 9.70577L8.56731 9.31346C8.88637 7.70919 10.302 6.5 12 6.5C13.933 6.5 15.5 8.067 15.5 10C15.5 11.5855 14.4457 12.9248 13 13.3551Z"></path></symbol><symbol viewBox="0 0 24 24" id="server-line"><path d="M5 11H19V5H5V11ZM21 4V20C21 20.5523 20.5523 21 20 21H4C3.44772 21 3 20.5523 3 20V4C3 3.44772 3.44772 3 4 3H20C20.5523 3 21 3.44772 21 4ZM19 13H5V19H19V13ZM7 15H10V17H7V15ZM7 7H10V9H7V7Z"></path></symbol><symbol viewBox="0 0 24 24" id="github-fill"><path d="M12.001 2C6.47598 2 2.00098 6.475 2.00098 12C2.00098 16.425 4.86348 20.1625 8.83848 21.4875C9.33848 21.575 9.52598 21.275 9.52598 21.0125C9.52598 20.775 9.51348 19.9875 9.51348 19.15C7.00098 19.6125 6.35098 18.5375 6.15098 17.975C6.03848 17.6875 5.55098 16.8 5.12598 16.5625C4.77598 16.375 4.27598 15.9125 5.11348 15.9C5.90098 15.8875 6.46348 16.625 6.65098 16.925C7.55098 18.4375 8.98848 18.0125 9.56348 17.75C9.65098 17.1 9.91348 16.6625 10.201 16.4125C7.97598 16.1625 5.65098 15.3 5.65098 11.475C5.65098 10.3875 6.03848 9.4875 6.67598 8.7875C6.57598 8.5375 6.22598 7.5125 6.77598 6.1375C6.77598 6.1375 7.61348 5.875 9.52598 7.1625C10.326 6.9375 11.176 6.825 12.026 6.825C12.876 6.825 13.726 6.9375 14.526 7.1625C16.4385 5.8625 17.276 6.1375 17.276 6.1375C17.826 7.5125 17.476 8.5375 17.376 8.7875C18.0135 9.4875 18.401 10.375 18.401 11.475C18.401 15.3125 16.0635 16.1625 13.8385 16.4125C14.201 16.725 14.5135 17.325 14.5135 18.2625C14.5135 19.6 14.501 20.675 14.501 21.0125C14.501 21.275 14.6885 21.5875 15.1885 21.4875C19.259 20.1133 21.9999 16.2963 22.001 12C22.001 6.475 17.526 2 12.001 2Z"></path></symbol></svg>